<svg xmlns="http://www.w3.org/2000/svg" viewBox="0 0 24 24" id="AppStore"><path fill="#ffffff" d="m20.85 15.11-.56-1a.5.5 0 0 0-.68-.19l-1.74 1a.5.5 0 0 0-.19.68l.56 1a3.28 3.28 0 0 0 .9 2.77c.94.94 1.89 2 1.85 3.13a.5.5 0 0 0 .38.5h.12a.5.5 0 0 0 .45-.29A11.6 11.6 0 0 0 23 19a4 4 0 0 0-2.15-3.89zm-18.32-.36 1.74-3a.5.5 0 0 0-.43-.75H.5a.5.5 0 0 0-.5.5v3a.5.5 0 0 0 .5.5h1.6a.5.5 0 0 0 .43-.25zM14 11.25a.5.5 0 0 0-.43-.25h-2.79a.5.5 0 0 0-.43.25l-1.74 3A.5.5 0 0 0 9 15h6.29a.5.5 0 0 0 .43-.75zm9.5-.25h-3a.5.5 0 0 0-.43.75l1.71 3a.5.5 0 0 0 .43.25h1.29a.5.5 0 0 0 .5-.5v-3a.5.5 0 0 0-.5-.5zM8.74 7l1.73 1a.5.5 0 0 0 .68-.18l.65-1.12a.5.5 0 0 0-.18-.68l-1.73-1a.5.5 0 0 0-.68.18l-.66 1.16a.5.5 0 0 0 .19.64zm1.41 2.6a.5.5 0 0 0-.15-.69l-1.73-1a.5.5 0 0 0-.68.18l-5.35 9.16a.49.49 0 0 0 0 .07L1 21.36a.5.5 0 0 0 .84.49l2.9-3a.48.48 0 0 0 0-.06zM3 18.25l.62.36-1 1.08zm16.3-5.86L12.93 1.25a.5.5 0 0 0-.3-.23.5.5 0 0 0-.38 0l-1.74 1a.5.5 0 0 0-.19.68l6.38 11.18a.5.5 0 0 0 .3.23h.13a.5.5 0 0 0 .25-.07l1.74-1a.5.5 0 0 0 .18-.65z" data-name="App Store" class="color303c42 svgShape"></path></svg>